<svg xmlns="http://www.w3.org/2000/svg" width="24" height="24" fill="currentColor" viewBox="0 0 24 24">
  <path d="M23.628 8.81 12.534.194a.925.925 0 0 0-1.134 0L.306 8.81a.923.923 0 0 0 1.134 1.453l.974-.726v12.309A2.165 2.165 0 0 0 4.57 24h14.792a2.17 2.17 0 0 0 2.157-2.154V9.536l.974.752a.91.91 0 0 0 .972.102.9.9 0 0 0 .322-.263.91.91 0 0 0-.16-1.317M19.67 21.846a.307.307 0 0 1-.308.308H4.571a.31.31 0 0 1-.308-.308V8.072l7.704-5.92 7.704 5.981zM7.616 17.5l7.396-7.386a.926.926 0 0 1 1.555.66.92.92 0 0 1-.248.645l-7.397 7.385a.925.925 0 0 1-1.577-.652c0-.244.098-.48.27-.652m8.357-.579a1.54 1.54 0 0 1-.95 1.422 1.542 1.542 0 0 1-2.102-1.122 1.537 1.537 0 0 1 1.511-1.838 1.54 1.54 0 0 1 1.541 1.538M7.96 11.997a1.54 1.54 0 0 1 .951-1.421 1.543 1.543 0 0 1 2.101 1.121 1.54 1.54 0 0 1-.655 1.58 1.542 1.542 0 0 1-2.397-1.28"/>
</svg>
